<?xml version="1.0" encoding="utf-8"?>
<!-- Generator: Adobe Illustrator 20.0.0, SVG Export Plug-In . SVG Version: 6.00 Build 0)  -->
<svg version="1.1" id="图层_1" xmlns="http://www.w3.org/2000/svg" xmlns:xlink="http://www.w3.org/1999/xlink" x="0px" y="0px"
	 viewBox="0 0 595.3 841.9" style="enable-background:new 0 0 595.3 841.9;" xml:space="preserve">
<style type="text/css">
	.st0{fill:none;stroke:#000000;stroke-width:0.709;stroke-linecap:round;stroke-linejoin:round;stroke-miterlimit:10;}
</style>
<path class="st0" d="M232.9,340.9l-1.6-0.2l-1.7-0.3l-1.7-0.4l-1.6-0.4l-1.6-0.5l-1.6-0.6l-1.6-0.7L220,337 M233.5,346.1l-0.1-0.7
	l-0.1-0.6l-0.1-0.7v-0.6l-0.1-0.7l-0.1-0.6v-0.7l-0.1-0.6 M221.6,352.5l1.4-1.1l1.3-0.9l1.5-1l1.4-0.8l1.6-0.8l1.5-0.7l1.6-0.6
	l1.6-0.5 M222.3,355.8l-0.1-0.4V355l-0.1-0.4l-0.1-0.4l-0.1-0.4l-0.1-0.5l-0.1-0.4l-0.1-0.4 M235.8,356.9l-1.7,0.2l-1.7,0.1
	l-1.7-0.1H229l-1.7-0.2l-1.7-0.3l-1.6-0.3l-1.7-0.5 M237.4,361.9l-0.2-0.6l-0.2-0.7l-0.2-0.6l-0.2-0.6l-0.2-0.6l-0.2-0.6l-0.2-0.7
	l-0.2-0.6 M227.2,370.6l1-1.3l1.2-1.2l1.2-1.2l1.2-1.2l1.4-1l1.3-1l1.4-1l1.5-0.8 M228.5,373.8l-0.1-0.4l-0.2-0.4l-0.2-0.4l-0.2-0.4
	l-0.1-0.4l-0.2-0.4l-0.2-0.4l-0.1-0.4 M241.9,372l-1.6,0.5l-1.6,0.5l-1.7,0.3l-1.7,0.3l-1.7,0.1l-1.7,0.1h-1.7h-1.7 M244.5,376.5
	l-0.3-0.5l-0.3-0.6l-0.4-0.5l-0.3-0.6l-0.3-0.6l-0.4-0.5l-0.3-0.6l-0.3-0.6 M236.3,387.2l0.8-1.5l0.9-1.4l0.9-1.5l1-1.3l1.1-1.3
	l1.1-1.3l1.2-1.2l1.2-1.2 M238.3,390l-0.2-0.3l-0.3-0.4l-0.2-0.3l-0.3-0.4l-0.2-0.3l-0.3-0.4l-0.2-0.3l-0.3-0.4 M251.1,385.5
	l-1.5,0.8l-1.5,0.8l-1.6,0.7l-1.6,0.6l-1.6,0.5l-1.6,0.5l-1.7,0.3l-1.7,0.3 M254.5,389.4l-0.4-0.5l-0.5-0.5l-0.4-0.4l-0.4-0.5
	l-0.5-0.5l-0.4-0.5l-0.4-0.5l-0.4-0.5 M248.7,401.6l0.5-1.7l0.5-1.6l0.6-1.6l0.7-1.5l0.8-1.5l0.8-1.5l1-1.4l0.9-1.4 M251.3,403.9
	l-0.3-0.3l-0.4-0.3l-0.3-0.3l-0.3-0.3l-0.3-0.3l-0.3-0.2l-0.3-0.3l-0.4-0.3 M262.8,396.8l-1.3,1.1l-1.3,1.1l-1.4,1l-1.4,0.9
	l-1.5,0.9l-1.5,0.7l-1.5,0.7l-1.6,0.7 M267,399.9l-0.5-0.4l-0.6-0.4l-0.5-0.3l-0.5-0.4l-0.5-0.4l-0.6-0.4l-0.5-0.4l-0.5-0.4
	 M263.9,413l0.1-1.7l0.2-1.7l0.2-1.7l0.4-1.6l0.4-1.7l0.5-1.6l0.6-1.6l0.7-1.5 M266.8,414.7l-0.3-0.2l-0.4-0.2l-0.4-0.2l-0.4-0.2
	l-0.3-0.2l-0.4-0.3l-0.4-0.2l-0.3-0.2 M276.6,405.4l-1,1.4l-1.1,1.3l-1.1,1.3l-1.2,1.2l-1.3,1.1l-1.3,1.1l-1.4,1l-1.4,0.9
	 M281.4,407.5l-0.6-0.2l-0.6-0.2l-0.6-0.3l-0.6-0.3l-0.6-0.2l-0.6-0.3l-0.6-0.3l-0.6-0.3 M281,421l-0.2-1.6l-0.2-1.7l-0.1-1.7v-1.7
	l0.1-1.7l0.2-1.7l0.3-1.7l0.3-1.7 M284.3,422.1l-0.4-0.1l-0.4-0.2l-0.4-0.1l-0.4-0.1l-0.4-0.1l-0.4-0.2l-0.4-0.1L281,421 M292,411
	l-0.8,1.5l-0.7,1.5l-0.9,1.5l-0.9,1.4l-1,1.4l-1.1,1.3l-1.1,1.3l-1.2,1.2 M297,412.1l-0.6-0.2l-0.6-0.1l-0.7-0.1l-0.6-0.1l-0.6-0.2
	l-0.7-0.1l-0.6-0.2L292,411 M299.5,425.3l-0.6-1.6l-0.5-1.6l-0.4-1.6l-0.4-1.7l-0.3-1.7l-0.1-1.6l-0.1-1.7l-0.1-1.7 M302.9,425.7
	h-0.4l-0.4-0.1h-0.5l-0.4-0.1h-0.4l-0.4-0.1h-0.5l-0.4-0.1 M308.1,413.2l-0.4,1.7l-0.4,1.6l-0.6,1.6l-0.6,1.6l-0.7,1.6l-0.7,1.5
	l-0.9,1.5l-0.9,1.4 M313.3,413.2h-0.6l-0.7,0.1h-0.7h-0.6H310h-0.6l-0.7-0.1h-0.6 M318.5,425.7l-0.9-1.4l-0.9-1.5l-0.7-1.5l-0.7-1.6
	l-0.6-1.6l-0.6-1.6l-0.4-1.6l-0.4-1.7 M321.9,425.3l-0.4,0.1H321l-0.4,0.1h-0.4l-0.4,0.1h-0.5l-0.4,0.1h-0.4 M324.3,412.1v1.7
	l-0.1,1.7l-0.2,1.6l-0.2,1.7l-0.4,1.7l-0.4,1.6l-0.5,1.6l-0.6,1.6 M329.4,411l-0.6,0.1l-0.6,0.2l-0.7,0.1l-0.6,0.2l-0.6,0.1
	l-0.7,0.1l-0.6,0.1l-0.7,0.2 M337.1,422.1l-1.2-1.2l-1.1-1.3l-1.1-1.3l-1-1.4l-0.9-1.4l-0.9-1.5l-0.8-1.5l-0.7-1.5 M340.3,421
	l-0.4,0.2l-0.4,0.1l-0.4,0.2l-0.4,0.1l-0.4,0.1l-0.4,0.1l-0.4,0.2l-0.4,0.1 M340,407.5l0.3,1.7l0.3,1.7l0.2,1.7l0.1,1.7v1.7
	l-0.1,1.7l-0.2,1.7l-0.3,1.6 M344.8,405.4l-0.6,0.3l-0.6,0.3l-0.6,0.3l-0.6,0.2l-0.6,0.3l-0.6,0.3l-0.6,0.2l-0.6,0.2 M354.6,414.7
	l-1.5-0.9l-1.3-1l-1.3-1.1l-1.3-1.1l-1.2-1.2l-1.1-1.3l-1.1-1.3l-1-1.4 M357.5,413l-0.3,0.2l-0.4,0.2l-0.4,0.3l-0.3,0.2l-0.4,0.2
	l-0.4,0.2l-0.4,0.2l-0.3,0.2 M354.4,399.9l0.7,1.5l0.6,1.6l0.5,1.6l0.4,1.7l0.4,1.6l0.2,1.7l0.2,1.7l0.1,1.7 M358.6,396.8l-0.5,0.4
	l-0.5,0.4L357,398l-0.5,0.4l-0.5,0.4l-0.5,0.3l-0.6,0.4l-0.5,0.4 M370.1,403.9l-1.6-0.7l-1.5-0.7l-1.5-0.7l-1.5-0.9l-1.4-0.9l-1.4-1
	l-1.3-1.1l-1.3-1.1 M372.7,401.6l-0.4,0.3l-0.3,0.3l-0.3,0.2l-0.3,0.3l-0.3,0.3l-0.3,0.3l-0.4,0.3l-0.3,0.3 M366.9,389.4l0.9,1.4
	l1,1.4l0.8,1.5l0.8,1.5l0.7,1.5l0.6,1.6l0.5,1.6l0.5,1.7 M370.3,385.5l-0.4,0.5l-0.4,0.5l-0.4,0.5l-0.5,0.5l-0.4,0.5l-0.5,0.4
	l-0.4,0.5l-0.4,0.5 M383.1,390l-1.7-0.3l-1.7-0.3l-1.6-0.5l-1.6-0.5l-1.6-0.6l-1.6-0.7l-1.5-0.8l-1.5-0.8 M385.1,387.2l-0.3,0.4
	l-0.2,0.3l-0.3,0.4l-0.2,0.3l-0.3,0.4l-0.2,0.3l-0.3,0.4l-0.2,0.3 M376.9,376.5l1.2,1.2l1.2,1.2l1.1,1.3l1.1,1.3l1,1.3l0.9,1.5
	l0.9,1.4l0.8,1.5 M379.5,372l-0.3,0.6l-0.4,0.6l-0.3,0.5l-0.3,0.6l-0.3,0.6l-0.4,0.5l-0.3,0.6l-0.3,0.5 M392.9,373.8h-1.7h-1.7
	l-1.7-0.1l-1.7-0.1l-1.7-0.3l-1.7-0.3l-1.6-0.5l-1.6-0.5 M394.2,370.6l-0.1,0.4l-0.2,0.4l-0.2,0.4l-0.1,0.4l-0.2,0.4l-0.2,0.4
	l-0.2,0.4l-0.1,0.4 M384,361.9l1.4,0.8l1.5,1l1.3,1l1.4,1l1.2,1.2l1.2,1.2l1.2,1.2l1,1.3 M385.6,356.9l-0.2,0.6l-0.2,0.7l-0.2,0.6
	l-0.2,0.6l-0.2,0.6l-0.2,0.6l-0.2,0.7l-0.2,0.6 M399.1,355.8l-1.7,0.5l-1.7,0.3l-1.6,0.3l-1.7,0.2h-1.7l-1.7,0.1l-1.7-0.1l-1.7-0.2
	 M399.8,352.5l-0.1,0.4l-0.1,0.4l-0.1,0.5l-0.1,0.4l-0.1,0.4l-0.1,0.4l-0.1,0.4v0.4 M387.9,346.1l1.6,0.5l1.6,0.6l1.5,0.7l1.6,0.8
	l1.4,0.8l1.5,1l1.3,0.9l1.4,1.1 M388.4,340.9v0.6l-0.1,0.7v0.6l-0.1,0.7v0.6l-0.1,0.7l-0.1,0.6l-0.1,0.7 M401.4,337l-1.5,0.8
	l-1.6,0.7l-1.6,0.6l-1.6,0.5l-1.6,0.4l-1.7,0.4l-1.7,0.3l-1.7,0.2 M401.4,333.6v0.4v0.5v0.4v0.4v0.4v0.5v0.4v0.4 M388.4,329.8
	l1.7,0.2l1.7,0.2l1.7,0.4l1.6,0.4l1.6,0.6l1.6,0.6l1.6,0.7l1.5,0.7 M387.9,324.6l0.1,0.6l0.1,0.7l0.1,0.6v0.7l0.1,0.6v0.7l0.1,0.6
	v0.7 M399.8,318.1l-1.4,1.1l-1.3,1l-1.5,0.9l-1.4,0.9l-1.6,0.7l-1.5,0.7l-1.6,0.6l-1.6,0.6 M399.1,314.8v0.4l0.1,0.4l0.1,0.4
	l0.1,0.5l0.1,0.4l0.1,0.4l0.1,0.4l0.1,0.4 M385.6,313.7l1.7-0.1l1.7-0.1h1.7l1.7,0.1l1.7,0.2l1.6,0.2l1.7,0.4l1.7,0.4 M384,308.8
	l0.2,0.6l0.2,0.6l0.2,0.6l0.2,0.6l0.2,0.7l0.2,0.6l0.2,0.6l0.2,0.6 M394.2,300l-1,1.3l-1.2,1.3l-1.2,1.2l-1.2,1.1l-1.4,1.1l-1.3,1
	l-1.5,0.9l-1.4,0.9 M392.9,296.9l0.1,0.4l0.2,0.3l0.2,0.4l0.2,0.4l0.1,0.4l0.2,0.4l0.2,0.4l0.1,0.4 M379.5,298.6l1.6-0.5l1.6-0.4
	l1.7-0.4l1.7-0.2l1.7-0.2l1.7-0.1h1.7l1.7,0.1 M376.9,294.1l0.3,0.6l0.3,0.5l0.4,0.6l0.3,0.5l0.3,0.6l0.3,0.6l0.4,0.5l0.3,0.6
	 M385.1,283.4l-0.8,1.5l-0.9,1.5l-0.9,1.4l-1,1.4l-1.1,1.3l-1.1,1.3l-1.2,1.2l-1.2,1.1 M383.1,280.6l0.2,0.4l0.3,0.3l0.2,0.4
	l0.3,0.3l0.2,0.3l0.3,0.4l0.2,0.3l0.3,0.4 M370.3,285.1l1.5-0.8l1.5-0.8l1.6-0.7l1.6-0.6l1.6-0.5l1.6-0.4l1.7-0.4l1.7-0.3
	 M366.9,281.3l0.4,0.4l0.4,0.5l0.5,0.5l0.4,0.5l0.5,0.4l0.4,0.5l0.4,0.5l0.4,0.5 M372.7,269.1l-0.5,1.6l-0.5,1.6l-0.6,1.6l-0.7,1.6
	l-0.8,1.5l-0.8,1.4l-1,1.5l-0.9,1.4 M370.1,266.8l0.3,0.3l0.4,0.2l0.3,0.3l0.3,0.3l0.3,0.3l0.3,0.3l0.3,0.3l0.4,0.3 M358.6,273.8
	l1.3-1.1l1.3-1.1l1.4-1l1.4-0.9l1.5-0.8l1.5-0.8l1.5-0.7l1.6-0.6 M354.4,270.8l0.5,0.3l0.6,0.4l0.5,0.4l0.5,0.4l0.5,0.3l0.6,0.4
	l0.5,0.4l0.5,0.4 M357.5,257.6l-0.1,1.7l-0.2,1.7l-0.2,1.7l-0.4,1.7l-0.4,1.6l-0.5,1.6l-0.6,1.6l-0.7,1.6 M354.6,255.9l0.3,0.2
	l0.4,0.2l0.4,0.3l0.4,0.2l0.3,0.2l0.4,0.2l0.4,0.2l0.3,0.2 M344.8,265.2l1-1.4l1.1-1.3l1.1-1.2l1.2-1.2l1.3-1.2l1.3-1l1.3-1l1.5-1
	 M340,263.1l0.6,0.2l0.6,0.3l0.6,0.2l0.6,0.3l0.6,0.3l0.6,0.2l0.6,0.3l0.6,0.3 M340.3,249.6l0.3,1.7l0.2,1.7l0.1,1.7v1.7l-0.1,1.7
	l-0.2,1.6l-0.3,1.7l-0.3,1.7 M337.1,248.5l0.4,0.2l0.4,0.1l0.4,0.1l0.4,0.2l0.4,0.1l0.4,0.1l0.4,0.2l0.4,0.1 M329.4,259.7l0.7-1.6
	l0.8-1.5l0.9-1.5l0.9-1.4l1-1.4l1.1-1.3l1.1-1.3l1.2-1.2 M324.3,258.6l0.7,0.1l0.6,0.1l0.7,0.1l0.6,0.2l0.6,0.1l0.7,0.2l0.6,0.1
	l0.6,0.2 M321.9,245.3l0.6,1.6l0.5,1.6l0.4,1.7l0.4,1.6l0.2,1.7l0.2,1.7l0.1,1.7v1.7 M318.5,244.9l0.4,0.1h0.4l0.5,0.1h0.4l0.4,0.1
	h0.4l0.5,0.1h0.4 M313.3,257.4l0.4-1.6l0.4-1.7l0.6-1.6l0.6-1.6l0.7-1.5l0.7-1.5l0.9-1.5l0.9-1.5 M308.1,257.4h0.6h0.7h0.6h0.7h0.6
	h0.7h0.7h0.6 M302.9,244.9l0.9,1.5l0.9,1.5l0.7,1.5l0.7,1.5l0.6,1.6l0.6,1.6l0.4,1.7l0.4,1.6 M299.5,245.3h0.4l0.5-0.1h0.4l0.4-0.1
	h0.4l0.5-0.1h0.4l0.4-0.1 M297,258.6l0.1-1.7l0.1-1.7l0.1-1.7l0.3-1.7l0.4-1.6l0.4-1.7l0.5-1.6l0.6-1.6 M292,259.7l0.6-0.2l0.6-0.1
	l0.7-0.2l0.6-0.1l0.6-0.2l0.7-0.1l0.6-0.1l0.6-0.1 M284.3,248.5l1.2,1.2l1.1,1.3l1.1,1.3l1,1.4l0.9,1.4l0.9,1.5l0.7,1.5l0.8,1.6
	 M281,249.6l0.5-0.1l0.4-0.2l0.4-0.1l0.4-0.1l0.4-0.2l0.4-0.1l0.4-0.1l0.4-0.2 M281.4,263.1l-0.3-1.7l-0.3-1.7l-0.2-1.6l-0.1-1.7
	v-1.7l0.1-1.7l0.2-1.7l0.2-1.7 M276.6,265.2l0.6-0.3l0.6-0.3l0.6-0.2l0.6-0.3l0.6-0.3l0.6-0.2l0.6-0.3l0.6-0.2 M266.8,255.9l1.4,1
	l1.4,1l1.3,1l1.3,1.2l1.2,1.2l1.1,1.2l1.1,1.3l1,1.4 M263.9,257.6l0.3-0.2l0.4-0.2l0.4-0.2l0.3-0.2l0.4-0.2l0.4-0.3l0.4-0.2l0.3-0.2
	 M267,270.8l-0.7-1.6l-0.6-1.6l-0.5-1.6l-0.4-1.6l-0.4-1.7l-0.2-1.7l-0.2-1.7l-0.1-1.7 M262.8,273.8l0.5-0.4l0.5-0.4l0.6-0.4
	l0.5-0.3l0.5-0.4l0.5-0.4l0.6-0.4l0.5-0.3 M251.3,266.8l1.6,0.6l1.5,0.7l1.5,0.8l1.5,0.8l1.4,0.9l1.4,1l1.3,1.1l1.3,1.1
	 M248.7,269.1l0.4-0.3l0.3-0.3l0.3-0.3l0.3-0.3l0.3-0.3l0.3-0.3l0.4-0.2l0.3-0.3 M254.5,281.3l-0.9-1.4l-1-1.5l-0.8-1.4l-0.8-1.5
	l-0.7-1.6l-0.6-1.6l-0.5-1.6l-0.5-1.6 M251.1,285.1l0.4-0.5l0.4-0.5l0.4-0.5l0.5-0.4l0.4-0.5l0.4-0.5l0.5-0.5l0.4-0.4 M238.3,280.6
	l1.7,0.3l1.7,0.4l1.6,0.4l1.6,0.5l1.6,0.6l1.6,0.7l1.5,0.8l1.5,0.8 M236.3,283.4l0.3-0.4l0.2-0.3l0.3-0.4l0.2-0.3l0.3-0.3l0.2-0.4
	l0.3-0.3l0.2-0.4 M244.5,294.1l-1.2-1.1l-1.2-1.2l-1.1-1.3l-1.1-1.3l-1-1.4l-0.9-1.4l-0.9-1.5l-0.8-1.5 M241.9,298.6l0.3-0.6
	l0.3-0.5l0.4-0.6l0.3-0.6l0.3-0.5l0.4-0.6l0.3-0.5l0.3-0.6 M228.5,296.9l1.7-0.1h1.7l1.7,0.1l1.7,0.2l1.7,0.2l1.7,0.4l1.6,0.4
	l1.6,0.5 M227.2,300l0.1-0.4l0.2-0.4l0.2-0.4l0.1-0.4l0.2-0.4l0.2-0.4l0.2-0.3l0.1-0.4 M237.4,308.8l-1.5-0.9l-1.4-0.9l-1.3-1
	l-1.4-1.1l-1.2-1.1l-1.2-1.2l-1.2-1.3l-1-1.3 M235.8,313.7l0.2-0.6l0.2-0.6l0.2-0.6l0.2-0.7l0.2-0.6l0.2-0.6l0.2-0.6l0.2-0.6
	 M222.3,314.8l1.7-0.4l1.6-0.4l1.7-0.2l1.7-0.2l1.7-0.1h1.7l1.7,0.1l1.7,0.1 M221.6,318.1l0.1-0.4l0.1-0.4l0.1-0.4l0.1-0.4l0.1-0.5
	l0.1-0.4v-0.4l0.1-0.4 M233.5,324.6l-1.6-0.6l-1.6-0.6l-1.5-0.7l-1.6-0.7l-1.4-0.9l-1.5-0.9l-1.3-1l-1.4-1.1 M232.9,329.8l0.1-0.7
	v-0.6l0.1-0.7l0.1-0.6v-0.7l0.1-0.6l0.1-0.7l0.1-0.6 M220,333.6l1.5-0.7l1.6-0.7l1.6-0.6l1.6-0.6l1.6-0.4l1.7-0.4l1.7-0.2l1.6-0.2
	 M220,337v-0.4v-0.4v-0.5v-0.4v-0.4v-0.4V334v-0.4"/>
</svg>
