<?xml version="1.0" encoding="utf-8"?>
<!-- Generator: Adobe Illustrator 20.0.0, SVG Export Plug-In . SVG Version: 6.00 Build 0)  -->
<svg version="1.1" id="图层_1" xmlns="http://www.w3.org/2000/svg" xmlns:xlink="http://www.w3.org/1999/xlink" x="0px" y="0px"
	 viewBox="0 0 595.3 841.9" style="enable-background:new 0 0 595.3 841.9;" xml:space="preserve">
<style type="text/css">
	.st0{fill:none;stroke:#000000;stroke-width:0.709;stroke-linecap:round;stroke-linejoin:round;stroke-miterlimit:10;}
</style>
<path class="st0" d="M216.3,343.8l-3.3-0.6l-3.4-0.7l-3.2-1.1l-3.2-1.2l-3-1.5l-3-1.8l-2.8-1.9l-2.6-2.1 M216.3,355v-1.4l-0.1-1.4
	v-1.4v-1.4V348v-1.4l0.1-1.4v-1.4 M191.8,365.9l2.6-2.2l2.8-1.9l3-1.7l3-1.5l3.2-1.3l3.2-1l3.4-0.8l3.3-0.5 M192.7,371.9l-0.1-0.8
	l-0.2-0.7l-0.1-0.8l-0.1-0.7l-0.1-0.8l-0.1-0.7l-0.1-0.8l-0.1-0.7 M219.5,374.7l-3.4,0.5l-3.4,0.3h-3.4l-3.4-0.2l-3.4-0.5l-3.3-0.7
	l-3.3-1l-3.2-1.2 M222.9,385.3l-0.5-1.3l-0.5-1.3l-0.4-1.3L221,380l-0.4-1.3l-0.4-1.3l-0.4-1.4l-0.3-1.3 M202.9,403.3l1.9-2.9l2-2.7
	l2.3-2.6l2.4-2.3l2.7-2.2l2.7-2l3-1.8l3-1.5 M205.7,408.7l-0.4-0.7l-0.4-0.7l-0.3-0.6l-0.3-0.7l-0.4-0.7l-0.3-0.7l-0.4-0.6l-0.3-0.7
	 M232,403.1l-3.1,1.5l-3.1,1.3l-3.3,1.1l-3.3,0.9l-3.3,0.5l-3.4,0.4l-3.4,0.1l-3.4-0.2 M238.5,412.1l-0.8-1.1l-0.9-1.1l-0.8-1.1
	l-0.9-1.1l-0.8-1.2l-0.8-1.1l-0.8-1.2l-0.7-1.1 M225.1,435.4l0.9-3.3l1.1-3.2l1.3-3.2l1.6-3l1.9-2.9l2-2.7l2.2-2.6l2.4-2.4
	 M229.4,439.7l-0.6-0.5l-0.5-0.6l-0.6-0.5l-0.5-0.5l-0.5-0.6l-0.6-0.5l-0.5-0.6l-0.5-0.5 M252.6,426.2l-2.4,2.4l-2.6,2.3l-2.7,2
	l-2.9,1.8l-3,1.6l-3.1,1.4l-3.2,1.1l-3.3,0.9 M261.7,432.8l-1.2-0.8l-1.1-0.8l-1.2-0.8l-1.1-0.8l-1.2-0.8l-1.1-0.8l-1.1-0.9
	l-1.1-0.9 M256.1,459.1l-0.2-3.4l0.1-3.4l0.3-3.4l0.6-3.4l0.8-3.3l1.1-3.2l1.3-3.2l1.6-3 M261.5,461.8l-0.7-0.3l-0.7-0.3l-0.7-0.4
	l-0.6-0.3l-0.7-0.3l-0.7-0.4l-0.7-0.4l-0.6-0.3 M279.5,441.8l-1.6,3.1l-1.8,2.9l-1.9,2.8l-2.2,2.6l-2.4,2.5l-2.5,2.2l-2.8,2.1
	l-2.8,1.8 M290.1,445.3l-1.4-0.4l-1.3-0.4l-1.3-0.4l-1.4-0.4l-1.3-0.4l-1.3-0.5l-1.3-0.5l-1.3-0.5 M292.9,472l-1.2-3.1l-1-3.3
	l-0.8-3.3l-0.4-3.4l-0.3-3.4l0.1-3.4l0.2-3.4l0.6-3.4 M298.9,473l-0.8-0.1l-0.7-0.1l-0.8-0.1l-0.7-0.1l-0.8-0.2l-0.7-0.1l-0.8-0.1
	l-0.7-0.2 M309.8,448.4l-0.5,3.4l-0.8,3.3l-1,3.3l-1.3,3.1l-1.5,3.1l-1.7,2.9l-2,2.8l-2.1,2.7 M321,448.4l-1.4,0.1h-1.4l-1.4,0.1
	h-1.4H314l-1.4-0.1h-1.4l-1.4-0.1 M331.9,473l-2.2-2.7l-1.9-2.8l-1.7-2.9l-1.5-3.1l-1.3-3.1l-1-3.3l-0.8-3.3l-0.5-3.4 M337.9,472
	l-0.8,0.2l-0.7,0.1l-0.8,0.1l-0.7,0.2l-0.8,0.1l-0.7,0.1l-0.8,0.1l-0.7,0.1 M340.7,445.3l0.5,3.4l0.3,3.4v3.4l-0.2,3.4l-0.5,3.4
	l-0.7,3.3l-1,3.3l-1.2,3.1 M351.3,441.8l-1.3,0.5l-1.3,0.5l-1.3,0.5l-1.4,0.4l-1.3,0.4l-1.3,0.4l-1.4,0.4l-1.3,0.4 M369.3,461.8
	l-2.9-1.8l-2.7-2.1l-2.5-2.2l-2.4-2.5l-2.2-2.6l-2-2.8l-1.8-2.9l-1.5-3.1 M374.7,459.1l-0.7,0.3l-0.7,0.4l-0.6,0.4l-0.7,0.3
	l-0.7,0.3l-0.6,0.4l-0.7,0.3l-0.7,0.3 M369.1,432.8l1.5,3l1.4,3.2l1,3.2l0.9,3.3l0.6,3.4l0.3,3.4l0.1,3.4l-0.2,3.4 M378.1,426.2
	l-1.1,0.9l-1.1,0.9l-1.1,0.8l-1.1,0.8l-1.1,0.8l-1.2,0.8l-1.2,0.8l-1.1,0.8 M401.4,439.7l-3.3-0.9l-3.2-1.1l-3.1-1.4l-3.1-1.6
	l-2.8-1.8l-2.8-2l-2.6-2.3l-2.4-2.4 M405.7,435.4l-0.5,0.5l-0.6,0.6l-0.5,0.5l-0.5,0.6l-0.6,0.5l-0.5,0.5l-0.5,0.6l-0.6,0.5
	 M392.2,412.1l2.4,2.4l2.3,2.6l2,2.7l1.8,2.9l1.6,3l1.4,3.2l1.1,3.2l0.9,3.3 M398.8,403.1l-0.8,1.1l-0.7,1.2l-0.8,1.1l-0.9,1.2
	l-0.8,1.1l-0.8,1.1l-0.9,1.1l-0.9,1.1 M425.1,408.7l-3.4,0.2l-3.4-0.1l-3.4-0.4l-3.4-0.5l-3.3-0.9l-3.2-1.1l-3.2-1.3l-3-1.5
	 M427.9,403.3l-0.4,0.7l-0.3,0.6l-0.3,0.7l-0.4,0.7l-0.3,0.7l-0.4,0.6l-0.3,0.7l-0.4,0.7 M407.9,385.3l3,1.5l2.9,1.8l2.8,2l2.6,2.2
	l2.5,2.3l2.2,2.6l2.1,2.7l1.9,2.9 M411.3,374.7l-0.4,1.3l-0.3,1.4l-0.4,1.3l-0.5,1.3l-0.4,1.4l-0.5,1.3l-0.4,1.3l-0.5,1.3
	 M438.1,371.9l-3.2,1.2l-3.3,1l-3.3,0.7l-3.4,0.5l-3.4,0.2h-3.4l-3.4-0.3l-3.4-0.5 M439,365.9l-0.1,0.7l-0.1,0.8l-0.1,0.7l-0.1,0.8
	l-0.2,0.7l-0.1,0.8l-0.1,0.7l-0.1,0.8 M414.4,355l3.4,0.5l3.3,0.8l3.3,1l3.1,1.3l3.1,1.5l3,1.7l2.8,1.9l2.6,2.2 M414.4,343.8
	l0.1,1.4v1.4l0.1,1.4v1.4v1.4l-0.1,1.4v1.4l-0.1,1.4 M439,332.9l-2.6,2.1l-2.8,1.9l-3,1.8l-3.1,1.5l-3.1,1.2l-3.3,1.1l-3.3,0.7
	l-3.4,0.6 M438.1,326.9l0.1,0.7l0.1,0.8l0.1,0.7l0.2,0.8l0.1,0.7l0.1,0.8l0.1,0.7l0.1,0.8 M411.3,324.1l3.4-0.6l3.4-0.3h3.4l3.4,0.2
	l3.4,0.5l3.3,0.8l3.3,0.9l3.2,1.3 M407.9,313.4l0.5,1.3l0.4,1.4l0.5,1.3l0.4,1.3l0.5,1.3l0.4,1.4l0.3,1.3l0.4,1.4 M427.9,295.5
	l-1.9,2.8l-2.1,2.7l-2.2,2.6l-2.5,2.4l-2.6,2.2l-2.8,1.9l-2.9,1.8l-3,1.5 M425.1,290.1l0.4,0.6l0.3,0.7l0.4,0.7l0.3,0.6l0.4,0.7
	l0.3,0.7l0.3,0.7l0.4,0.7 M398.8,295.7l3-1.6l3.2-1.3l3.2-1.1l3.3-0.8l3.4-0.6l3.4-0.3l3.4-0.1l3.4,0.2 M392.2,286.6l0.9,1.1
	l0.9,1.1l0.8,1.1l0.8,1.2l0.9,1.1l0.8,1.1l0.7,1.2l0.8,1.2 M405.7,263.3l-0.9,3.3l-1.1,3.3l-1.4,3.1l-1.6,3l-1.8,2.9l-2,2.7
	l-2.3,2.6l-2.4,2.4 M401.4,259.1l0.6,0.5l0.5,0.5l0.5,0.5l0.6,0.6l0.5,0.5l0.5,0.6l0.6,0.5l0.5,0.5 M378.1,272.5l2.4-2.4l2.6-2.2
	l2.8-2.1l2.8-1.8l3.1-1.6l3.1-1.3l3.2-1.2l3.3-0.8 M369.1,265.9l1.1,0.8l1.2,0.8l1.2,0.8l1.1,0.8l1.1,0.8l1.1,0.9l1.1,0.8l1.1,0.9
	 M374.7,239.6l0.2,3.5l-0.1,3.4l-0.3,3.4l-0.6,3.3l-0.9,3.3l-1,3.3l-1.4,3.1l-1.5,3 M369.3,236.9l0.7,0.3l0.7,0.4l0.6,0.3l0.7,0.3
	l0.7,0.4l0.6,0.3l0.7,0.4l0.7,0.3 M351.3,256.9l1.5-3.1l1.8-2.9l2-2.7l2.2-2.7l2.4-2.4l2.5-2.3l2.7-2.1l2.9-1.8 M340.7,253.4
	l1.3,0.4l1.4,0.4l1.3,0.4l1.3,0.4l1.4,0.5l1.3,0.4l1.3,0.5l1.3,0.5 M337.9,226.7l1.2,3.2l1,3.2l0.7,3.4l0.5,3.4l0.2,3.4v3.4
	l-0.3,3.4l-0.5,3.3 M331.9,225.7l0.7,0.1l0.8,0.1l0.7,0.2l0.8,0.1l0.7,0.1l0.8,0.1l0.7,0.2l0.8,0.1 M321,250.3l0.5-3.4l0.8-3.3
	l1-3.2l1.3-3.2l1.5-3.1l1.7-2.9l1.9-2.8l2.2-2.7 M309.8,250.3l1.4-0.1h1.4h1.4h1.4h1.4h1.4h1.4l1.4,0.1 M298.9,225.7l2.1,2.7l2,2.8
	l1.7,2.9l1.5,3.1l1.3,3.2l1,3.2l0.8,3.3l0.5,3.4 M292.9,226.7l0.7-0.1l0.8-0.2l0.7-0.1l0.8-0.1l0.7-0.1l0.8-0.2l0.7-0.1l0.8-0.1
	 M290.1,253.4l-0.6-3.3l-0.2-3.4l-0.1-3.4l0.3-3.4l0.4-3.4l0.8-3.4l1-3.2l1.2-3.2 M279.5,256.9l1.3-0.5l1.3-0.5l1.3-0.4l1.3-0.5
	l1.4-0.4l1.3-0.4l1.3-0.4l1.4-0.4 M261.5,236.9l2.8,1.8l2.8,2.1l2.5,2.3l2.4,2.4l2.2,2.7l1.9,2.7l1.8,2.9l1.6,3.1 M256.1,239.6
	l0.6-0.3l0.7-0.4l0.7-0.3l0.7-0.4l0.6-0.3l0.7-0.3l0.7-0.4l0.7-0.3 M261.7,265.9l-1.6-3l-1.3-3.1l-1.1-3.3l-0.8-3.3l-0.6-3.3
	l-0.3-3.4l-0.1-3.4l0.2-3.5 M252.6,272.5l1.1-0.9l1.1-0.8l1.1-0.9l1.2-0.8l1.1-0.8l1.2-0.8l1.1-0.8l1.2-0.8 M229.4,259.1l3.3,0.8
	l3.2,1.2l3.1,1.3l3,1.6l2.9,1.8l2.7,2.1l2.6,2.2l2.4,2.4 M225.1,263.3l0.5-0.5l0.5-0.5l0.6-0.6l0.5-0.5l0.5-0.6l0.6-0.5l0.5-0.5
	l0.6-0.5 M238.5,286.6l-2.4-2.4l-2.2-2.6l-2-2.7L230,276l-1.6-3l-1.3-3.1l-1.1-3.3l-0.9-3.3 M232,295.7l0.7-1.2l0.8-1.2l0.8-1.1
	l0.8-1.1l0.9-1.2l0.8-1.1l0.9-1.1l0.8-1.1 M205.7,290.1l3.4-0.2l3.4,0.1l3.4,0.3l3.3,0.6l3.3,0.8l3.3,1.1l3.1,1.3l3.1,1.6
	 M202.9,295.5l0.3-0.7l0.4-0.7l0.3-0.7l0.4-0.7l0.3-0.6l0.3-0.7l0.4-0.7l0.4-0.6 M222.9,313.4l-3-1.5l-3-1.8l-2.7-1.9l-2.7-2.2
	l-2.4-2.4l-2.3-2.6l-2-2.7l-1.9-2.8 M219.5,324.1l0.3-1.4l0.4-1.3l0.4-1.4l0.4-1.3l0.5-1.3l0.4-1.3l0.5-1.4l0.5-1.3 M192.7,326.9
	l3.2-1.3l3.3-0.9l3.3-0.8l3.4-0.5l3.4-0.2h3.4l3.4,0.3l3.4,0.6 M191.8,332.9l0.1-0.8l0.1-0.7l0.1-0.8l0.1-0.7l0.1-0.8l0.1-0.7
	l0.2-0.8l0.1-0.7"/>
</svg>
